<svg xmlns="http://www.w3.org/2000/svg" viewBox="0 0 48 48"><defs><linearGradient id="r" x1="0" y1="0" x2="1" y2="1"><stop offset="0" stop-color="#FF9933"/><stop offset=".5" stop-color="#FFFFFF"/><stop offset="1" stop-color="#2FBF71"/></linearGradient></defs><circle cx="24" cy="24" r="23" fill="#1F2766"/><ellipse cx="24" cy="26" rx="19" ry="8" fill="none" stroke="url(#r)" stroke-width="3.5" transform="rotate(-22 24 26)"/><path d="M24 9c4 3 5.5 7.5 5.5 12.5V29h-11v-7.5C18.5 16.5 20 12 24 9Z" fill="#fff"/><path d="M24 9c2 1.5 3.5 3.5 4.3 6h-8.6c.8-2.5 2.3-4.5 4.3-6Z" fill="#FF9933"/><circle cx="24" cy="20" r="2.4" fill="#6FD3FF"/><path d="M21 30c0 4 3 7 3 7s3-3 3-7z" fill="#FFC93C"/></svg>
